<?xml version="1.0" encoding="UTF-8"?>
<svg version="1.1" xmlns="http://www.w3.org/2000/svg" width="864" height="849">
<path d="M0 0 C0.83122375 -0.00701431 1.66244751 -0.01402863 2.51885986 -0.02125549 C5.20143074 -0.0387212 7.88378052 -0.0451121 10.56640625 -0.046875 C11.48418854 -0.04754974 12.40197083 -0.04822449 13.3475647 -0.04891968 C28.13904937 -0.03165856 42.53737774 0.56607022 57.12890625 3.203125 C58.48725586 3.44458252 58.48725586 3.44458252 59.87304688 3.69091797 C94.11154273 10.04200032 128.37971418 24.49393714 155.3659668 46.75634766 C156.75818271 47.89888629 158.16353679 49.02541501 159.57348633 50.14599609 C166.33079446 55.56209992 172.58914682 61.31186808 178.69140625 67.453125 C180.06872925 68.83781982 180.06872925 68.83781982 181.47387695 70.25048828 C187.98388102 76.87356358 193.87062332 83.52913644 199.12890625 91.203125 C199.53077148 91.77659668 199.93263672 92.35006836 200.34667969 92.94091797 C233.71613022 140.61704097 248.14699556 198.59329705 238.63378906 256.35205078 C230.86322794 300.23242449 211.1344978 340.01729606 180.59375 372.55078125 C178.63341757 374.66023564 176.76835942 376.79258442 174.94140625 379.015625 C171.69406432 382.84088371 167.95427927 385.97210745 164.12890625 389.203125 C163.21496094 390.01652344 162.30101562 390.82992188 161.359375 391.66796875 C147.99655585 403.46705374 132.89636208 412.95143759 117.12890625 421.203125 C116.49791016 421.53763672 115.86691406 421.87214844 115.21679688 422.21679688 C94.31341457 433.1479234 71.34452958 439.5453971 48.12890625 443.203125 C46.90179932 443.39793457 46.90179932 443.39793457 45.64990234 443.59667969 C-9.26738039 451.84293413 -68.40582001 437.17290759 -113.37890625 404.7109375 C-116.61929179 402.30215958 -119.75838155 399.77391315 -122.87109375 397.203125 C-123.42716309 396.74856934 -123.98323242 396.29401367 -124.55615234 395.82568359 C-137.54490717 385.15726423 -149.64351751 373.57904766 -159.87109375 360.203125 C-160.28391602 359.67734863 -160.69673828 359.15157227 -161.12207031 358.60986328 C-169.5704306 347.82585342 -176.41816624 336.27179264 -182.87109375 324.203125 C-183.25394531 323.48962891 -183.63679688 322.77613281 -184.03125 322.04101562 C-192.89064755 305.22123689 -198.73060201 286.59381537 -202.80859375 268.078125 C-202.99574951 267.22847168 -203.18290527 266.37881836 -203.37573242 265.50341797 C-206.37206676 250.83943331 -207.28092398 236.19507669 -207.24609375 221.265625 C-207.24588226 220.42028198 -207.24567078 219.57493896 -207.24545288 218.70397949 C-207.20871297 203.89448704 -206.03326032 189.71219494 -202.87109375 175.203125 C-202.59821533 173.93082031 -202.59821533 173.93082031 -202.31982422 172.6328125 C-198.10130354 153.63250487 -191.15127382 135.28877857 -181.87109375 118.203125 C-181.51934082 117.54119141 -181.16758789 116.87925781 -180.80517578 116.19726562 C-170.691096 97.1964326 -157.60393821 80.83618798 -142.87109375 65.203125 C-142.18144531 64.4709375 -141.49179687 63.73875 -140.78125 62.984375 C-135.53100798 57.57308261 -129.77710486 52.87806783 -123.87109375 48.203125 C-122.89398438 47.4090625 -121.916875 46.615 -120.91015625 45.796875 C-112.06069238 38.75296925 -102.65187412 32.86695055 -92.87109375 27.203125 C-92.22914063 26.82913574 -91.5871875 26.45514648 -90.92578125 26.06982422 C-64.04128963 10.57549088 -31.16207973 0.17648296 0 0 Z " fill="#FB6BA5" transform="translate(414.87109375,203.796875)"/>
<path d="M0 0 C1.2271875 0.00902344 2.454375 0.01804688 3.71875 0.02734375 C5.09546875 0.04474609 5.09546875 0.04474609 6.5 0.0625 C3.47369862 3.29055481 0.29070243 6.07375793 -3.1875 8.8125 C-11.34867681 15.27343164 -18.8887571 22.01288289 -25.5 30.0625 C-26.39191721 31.10677927 -27.28384522 32.15104931 -28.17578125 33.1953125 C-45.04825963 53.27057919 -57.16509194 76.93800258 -64.5 102.0625 C-64.69964355 102.73877441 -64.89928711 103.41504883 -65.10498047 104.11181641 C-69.83245202 120.46447959 -70.67392496 136.5642269 -70.6875 153.5 C-70.68858765 154.23579285 -70.68967529 154.97158569 -70.6907959 155.72967529 C-70.6888485 167.3741657 -70.31337064 178.68755322 -67.625 190.0625 C-67.44356445 190.84520264 -67.26212891 191.62790527 -67.07519531 192.43432617 C-66.71548184 193.97202166 -66.35174157 195.50878242 -65.98339844 197.04443359 C-65.59431309 198.66876665 -65.22048361 200.2967501 -64.8515625 201.92578125 C-57.6515942 231.23993791 -42.18641339 258.28923477 -21.5 280.0625 C-20.32666277 281.43181218 -19.15946034 282.80641787 -18 284.1875 C9.49359213 315.47331173 56.02632644 337.04420379 97.29589844 339.95410156 C138.43573692 341.97737231 184.0115426 335.92688646 217.85546875 310.27734375 C219.5 309.0625 219.5 309.0625 221.5 309.0625 C222.00657878 314.49977895 220.32310221 318.17192939 217.75 322.8125 C217.35095459 323.54694336 216.95190918 324.28138672 216.54077148 325.03808594 C207.01896587 342.20241733 195.38811064 358.1110416 181.96484375 372.41015625 C180.00451132 374.51961064 178.13945317 376.65195942 176.3125 378.875 C173.06515807 382.70025871 169.32537302 385.83148245 165.5 389.0625 C164.58605469 389.87589844 163.67210937 390.68929688 162.73046875 391.52734375 C149.3676496 403.32642874 134.26745583 412.81081259 118.5 421.0625 C117.86900391 421.39701172 117.23800781 421.73152344 116.58789062 422.07617188 C95.68450832 433.0072984 72.71562333 439.4047721 49.5 443.0625 C48.27289307 443.25730957 48.27289307 443.25730957 47.02099609 443.45605469 C-7.89628664 451.70230913 -67.03472626 437.03228259 -112.0078125 404.5703125 C-115.24819804 402.16153458 -118.3872878 399.63328815 -121.5 397.0625 C-122.05606934 396.60794434 -122.61213867 396.15338867 -123.18505859 395.68505859 C-136.17381342 385.01663923 -148.27242376 373.43842266 -158.5 360.0625 C-158.91282227 359.53672363 -159.32564453 359.01094727 -159.75097656 358.46923828 C-168.19933685 347.68522842 -175.04707249 336.13116764 -181.5 324.0625 C-181.88285156 323.34900391 -182.26570313 322.63550781 -182.66015625 321.90039062 C-191.5195538 305.08061189 -197.35950826 286.45319037 -201.4375 267.9375 C-201.62465576 267.08784668 -201.81181152 266.23819336 -202.00463867 265.36279297 C-205.00097301 250.69880831 -205.90983023 236.05445169 -205.875 221.125 C-205.87478851 220.27965698 -205.87457703 219.43431396 -205.87435913 218.56335449 C-205.83761922 203.75386204 -204.66216657 189.57156994 -201.5 175.0625 C-201.22712158 173.79019531 -201.22712158 173.79019531 -200.94873047 172.4921875 C-196.73020979 153.49187987 -189.78018007 135.14815357 -180.5 118.0625 C-180.14824707 117.40056641 -179.79649414 116.73863281 -179.43408203 116.05664062 C-169.32000225 97.0558076 -156.23284446 80.69556298 -141.5 65.0625 C-140.81035156 64.3303125 -140.12070312 63.598125 -139.41015625 62.84375 C-134.15991423 57.43245761 -128.40601111 52.73744283 -122.5 48.0625 C-121.52289063 47.2684375 -120.54578125 46.474375 -119.5390625 45.65625 C-110.68959863 38.61234425 -101.28078037 32.72632555 -91.5 27.0625 C-90.85804688 26.68851074 -90.21609375 26.31452148 -89.5546875 25.92919922 C-63.39318987 10.85154885 -30.43022558 -0.29259832 0 0 Z " fill="#F9742F" transform="translate(413.5,203.9375)"/>
<path d="M0 0 C3.10460292 2.4268375 4.75361252 5.26083757 6 9 C6.09644607 10.73495159 6.13493981 12.47337701 6.14044189 14.21099854 C6.14900711 15.83014915 6.14900711 15.83014915 6.15774536 17.48200989 C6.15886322 18.66647202 6.15998108 19.85093414 6.16113281 21.07128906 C6.16609772 22.3186937 6.17106262 23.56609833 6.17617798 24.8513031 C6.18828909 28.27505564 6.19574564 31.69874708 6.20018864 35.12251377 C6.20312121 37.26285884 6.20722642 39.40319857 6.21169281 41.54354095 C6.225367 48.24390744 6.23503348 54.94426169 6.2388947 61.64464116 C6.24337248 69.37202739 6.26090754 77.09923647 6.2898953 84.82656884 C6.311537 90.803763 6.32160034 96.78090742 6.32293582 102.75814033 C6.32398227 106.32593329 6.32985542 109.89355972 6.34775543 113.46131134 C6.36735142 117.44464281 6.3629372 121.42775435 6.35644531 125.41113281 C6.3656601 126.58749802 6.37487488 127.76386322 6.3843689 128.97587585 C6.34917698 135.86817788 6.2071151 141.7395441 1.12109375 146.91015625 C-2.78151324 148.91536316 -6.73786624 148.61479725 -11 148 C-14.26649269 146.23064979 -15.54550139 144.97173564 -17.10882568 141.62928772 C-18.42409338 136.2728891 -18.27769593 131.05229891 -18.25878906 125.55639648 C-18.2622937 124.30534119 -18.26579834 123.05428589 -18.26940918 121.76531982 C-18.27668899 118.34594142 -18.27500308 114.92680593 -18.26865101 111.50744128 C-18.2635748 107.92366388 -18.26828686 104.3398966 -18.27142334 100.75611877 C-18.27505779 94.73981877 -18.27027707 88.72356793 -18.26074219 82.70727539 C-18.24985367 75.75670607 -18.25338816 68.80625405 -18.264395 61.85568756 C-18.27347682 55.8810054 -18.27474893 49.90635851 -18.26951766 43.93167168 C-18.26640351 40.36627248 -18.26597344 36.80092839 -18.27259064 33.23553276 C-18.2794513 29.26171192 -18.2699367 25.28802207 -18.25878906 21.31420898 C-18.26283752 20.13536636 -18.26688599 18.95652374 -18.27105713 17.74195862 C-18.26541748 16.65833038 -18.25977783 15.57470215 -18.25396729 14.45823669 C-18.25321323 13.51934821 -18.25245918 12.58045973 -18.25168228 11.61312008 C-17.75895705 6.49734404 -15.89157694 3.30194407 -12 0 C-7.81809774 -1.39396742 -4.23460993 -1.22580814 0 0 Z " fill="#F97835" transform="translate(438,701)"/>
<path d="M0 0 C3.26699916 1.76962454 4.54590886 3.02785981 6.10783386 6.3717041 C7.42337629 11.72180314 7.28623126 16.93766183 7.2746582 22.42773438 C7.2823246 24.30190788 7.2823246 24.30190788 7.29014587 26.21394348 C7.30164219 29.62925166 7.30411915 33.04431668 7.30158257 36.45962715 C7.30051043 39.31501382 7.30540231 42.17037828 7.310188 45.02576017 C7.32126888 51.76312146 7.32172822 58.50042699 7.31567383 65.23779297 C7.30963083 72.18042884 7.32195646 79.12286221 7.3432439 86.06546354 C7.36087257 92.03506875 7.36685937 98.00460956 7.36360615 103.97423983 C7.36179559 107.53579501 7.36440697 111.09720565 7.37832069 114.65873718 C7.39325594 118.62999393 7.3839178 122.6009935 7.37231445 126.57226562 C7.38378006 128.33513664 7.38378006 128.33513664 7.39547729 130.13362122 C7.33054319 140.17789653 7.33054319 140.17789653 4 145 C1.35050576 147.46024465 -0.56892721 148.85108766 -4.21484375 149.23046875 C-7.52386708 149.08181046 -10.01356897 148.78354806 -12.65234375 146.6875 C-16.24749569 142.51920789 -17.12368902 139.08390722 -17.14044189 133.74430847 C-17.14615204 132.65501541 -17.15186218 131.56572235 -17.15774536 130.44342041 C-17.15886322 129.2480365 -17.15998108 128.05265259 -17.16113281 126.82104492 C-17.16609772 125.56228043 -17.17106262 124.30351593 -17.17617798 123.00660706 C-17.18929374 119.55194709 -17.19574539 116.09730655 -17.20018864 112.64262557 C-17.20312085 110.48352723 -17.20722595 108.32443419 -17.21169281 106.16533852 C-17.22536591 99.40784295 -17.23503334 92.6503595 -17.2388947 85.89285105 C-17.24337438 78.09640494 -17.26091875 70.30013423 -17.2898953 62.50374144 C-17.3115239 56.4747587 -17.32159962 50.44582526 -17.32293582 44.41680413 C-17.32398306 40.81718565 -17.32987337 37.21773211 -17.34775543 33.61815453 C-17.36732356 29.60104128 -17.36294248 25.58429433 -17.35644531 21.56713867 C-17.3656601 20.37782745 -17.37487488 19.18851624 -17.3843689 17.96316528 C-17.33315746 7.86872467 -17.33315746 7.86872467 -14 3 C-9.8981752 -1.03360318 -5.44810354 -0.78586907 0 0 Z " fill="#F97835" transform="translate(437,0)"/>
<path d="M0 0 C3.55191611 0.74507856 4.96843127 2.03919458 7.58395386 4.5295105 C8.45187561 5.34893127 9.31979736 6.16835205 10.21401978 7.01260376 C11.08778259 7.86654724 11.96154541 8.72049072 12.86178589 9.60031128 C13.66964539 10.38706238 14.47750488 11.17381348 15.30984497 11.98440552 C17.80607023 14.44581644 20.2779112 16.92962583 22.74459839 19.42062378 C23.64370941 20.32352142 24.54282043 21.22641907 25.46917725 22.15667725 C28.31085 25.01044524 31.14933638 27.86734602 33.98678589 30.72531128 C37.73628671 34.50184871 41.48948636 38.27466331 45.24459839 42.04562378 C46.09063629 42.89996002 46.93667419 43.75429626 47.80834961 44.63452148 C52.0433595 48.88684493 56.34993269 52.95846858 60.90014648 56.87020874 C64.485773 60.03261541 67.84677769 63.42257625 71.22897339 66.79953003 C71.98977203 67.55700027 72.75057068 68.31447052 73.53442383 69.09489441 C75.12727004 70.68271429 76.71879735 72.27185827 78.30905151 73.86227417 C80.74570361 76.29672092 83.19026927 78.72303405 85.63522339 81.1491394 C87.1877953 82.69878027 88.73989558 84.24889382 90.29147339 85.79953003 C91.02163666 86.52250778 91.75179993 87.24548553 92.50408936 87.9903717 C93.17884308 88.66820206 93.8535968 89.34603241 94.54879761 90.04440308 C95.14199799 90.63617844 95.73519836 91.2279538 96.34637451 91.83766174 C98.91412399 94.8243375 99.80065406 97.05012482 100.23678589 100.97531128 C99.78751812 105.31823308 98.69552869 107.30704262 95.86178589 110.60031128 C92.21959938 112.70894557 89.02369917 113.10993331 84.86178589 112.60031128 C79.49083649 109.52642347 75.43125944 105.4143355 71.11959839 101.01828003 C70.39239594 100.28587601 69.66519348 99.55347198 68.91595459 98.7988739 C66.60139573 96.4665852 64.29364792 94.12771117 61.98678589 91.78781128 C59.68623436 89.45947531 57.38417693 87.13268083 55.07904053 84.80888367 C53.64919683 83.36696315 52.22203111 81.92238005 50.7980957 80.47462463 C47.65369258 77.29914124 44.48038578 74.22246231 41.09152222 71.30807495 C32.57199209 63.95892165 24.69392496 55.84561671 16.69897556 47.93412971 C13.76404625 45.02986437 10.82166428 42.13414766 7.8600769 39.25704956 C4.9736173 36.45266367 2.10739235 33.62900514 -0.74574471 30.79073715 C-1.82932071 29.71936192 -2.91974308 28.65486263 -4.01721001 27.5977211 C-14.30148354 17.6732664 -14.30148354 17.6732664 -14.46842957 10.49798584 C-13.88983321 7.17292161 -12.32468772 5.09046178 -10.13821411 2.60031128 C-6.50512306 0.17825058 -4.30142987 -0.14560473 0 0 Z " fill="#F97531" transform="translate(137.13821411132813,120.39968872070313)"/>
<path d="M0 0 C8.29496724 5.3928812 15.15081916 12.90248214 22.0703125 19.91015625 C23.202188 21.04832307 24.3345942 22.18596235 25.46749878 23.32310486 C28.42451414 26.29330224 31.37588172 29.26904054 34.32556152 32.246521 C39.05028436 37.01467372 43.78192665 41.77593457 48.51690292 46.53390312 C50.15437848 48.18146996 51.78832553 49.83247384 53.42190552 51.48390198 C58.21493261 56.31564239 63.04534873 61.03728287 68.22268677 65.46214294 C73.03934124 69.62985291 77.50511148 74.19977181 82.02929688 78.67919922 C83.26522134 79.89844852 84.50650197 81.11229092 85.75292969 82.32080078 C87.57418395 84.08719799 89.37834519 85.86957777 91.1796875 87.65625 C91.73486053 88.18875366 92.29003357 88.72125732 92.86203003 89.26989746 C96.45554771 92.88331779 98.06819616 95.84650763 99 101 C98.11045512 105.53667888 96.5165867 108.03287998 93 111 C89.40599408 112.79700296 85.90760957 112.6774803 82 112 C80.16064453 110.80664062 80.16064453 110.80664062 78.3828125 109.15625 C77.35051514 108.20202148 77.35051514 108.20202148 76.29736328 107.22851562 C71.31871908 102.39907203 66.43283932 97.48184655 61.56347656 92.54296875 C60.14866287 91.10980594 58.73064302 89.67986733 57.3125 88.25 C56.48363281 87.40953125 55.65476562 86.5690625 54.80078125 85.703125 C52.70320547 83.67868645 50.59809898 81.77886319 48.38720703 79.88720703 C43.38446403 75.54568798 38.7398971 70.85269015 34.07775497 66.15291977 C32.45647628 64.51869104 30.83193108 62.88777034 29.20657349 61.25759888 C25.75986821 57.79956118 22.31714048 54.33758075 18.875 50.875 C14.87481383 46.85111274 10.87295971 42.82891317 6.86685562 38.8109169 C5.27510954 37.2127425 3.68643132 35.61156234 2.09786987 34.01022339 C1.11341061 33.02212865 0.12880902 32.0341757 -0.85595703 31.04638672 C-1.70674835 30.19035858 -2.55753967 29.33433044 -3.43411255 28.45236206 C-5.32047895 26.64945625 -7.19462113 24.97801697 -9.20431519 23.32522583 C-12.63746214 20.46981025 -14.64935639 18.37225554 -15.31640625 13.859375 C-15.52302694 9.83360409 -15.3464316 7.58151019 -13.25 4.0625 C-8.99768575 0.16454527 -5.84345107 -0.94249211 0 0 Z " fill="#F97531" transform="translate(642,616)"/>
<path d="M0 0 C3.32149814 1.44938101 5.24814485 2.51878109 6.9140625 5.80078125 C8.31078427 10.13398432 8.06723034 12.73310129 6.17793274 16.98100281 C3.73533553 21.16765689 0.11801548 24.38399289 -3.32421875 27.75 C-4.14445023 28.56694336 -4.9646817 29.38388672 -5.80976868 30.22558594 C-8.42644552 32.82656262 -11.05694989 35.41306348 -13.6875 38 C-15.43771279 39.73871422 -17.18707086 41.47828926 -18.93554688 43.21875 C-20.62683735 44.89660664 -22.31887095 46.57371461 -24.01171875 48.25 C-25.182472 49.40967285 -25.182472 49.40967285 -26.37687683 50.59277344 C-29.80202336 53.95934236 -33.24583941 57.25375628 -36.89282227 60.37963867 C-41.57379599 64.42147965 -45.89796677 68.80034104 -50.24259186 73.19799232 C-51.73691239 74.70996783 -53.23497561 76.21814574 -54.73406982 77.72538757 C-58.98951582 82.00507405 -63.23904924 86.29059738 -67.484375 90.58032227 C-70.095872 93.21861124 -72.71222928 95.85199892 -75.33162689 98.48244286 C-76.32387218 99.48088117 -77.31421788 100.48121111 -78.30258942 101.48348427 C-79.68052955 102.88066201 -81.06522023 104.2711724 -82.45019531 105.66137695 C-83.62645477 106.84882256 -83.62645477 106.84882256 -84.82647705 108.06025696 C-88.01689596 110.9075206 -90.11997813 111.90221979 -94.375 112.375 C-98.67080432 111.93060645 -100.67783589 110.70408706 -104 108 C-106.75061614 103.87407579 -106.89758818 100.82766163 -106 96 C-104.83555603 94.20643616 -104.83555603 94.20643616 -103.21459961 92.45727539 C-102.2564888 91.41967575 -102.2564888 91.41967575 -101.27902222 90.3611145 C-96.56894323 85.48137454 -91.80436541 80.66163129 -87.00390625 75.87109375 C-85.84465727 74.71116945 -84.68555663 73.55109688 -83.52659607 72.3908844 C-81.10846178 69.9712839 -78.6885492 67.55348029 -76.26733398 65.13696289 C-73.18323528 62.05856078 -70.10364906 58.97568977 -67.02539158 55.89144802 C-64.63612967 53.49855131 -62.24446486 51.10806762 -59.85209465 48.71827888 C-58.71640839 47.58325383 -57.58144814 46.44750181 -56.44726753 45.31097221 C-51.02818059 39.88312351 -45.59840275 34.53268252 -39.76591492 29.54353333 C-36.834267 26.98106771 -34.1138807 24.21811583 -31.3828125 21.4453125 C-30.50796707 20.56478714 -30.50796707 20.56478714 -29.615448 19.66647339 C-27.78280187 17.82177179 -25.95349705 15.97381369 -24.125 14.125 C-21.69296814 11.66640929 -19.25765523 9.21113697 -16.8203125 6.7578125 C-16.26513947 6.19434113 -15.70996643 5.63086975 -15.13796997 5.05032349 C-10.13545091 0.01569244 -6.989951 -0.81059936 0 0 Z " fill="#F97531" transform="translate(733,121)"/>
<path d="M0 0 C3.13180809 1.62390049 5.24339744 3.00266026 7.375 5.8125 C8.30460241 9.06610843 8.34882528 11.62802225 8 15 C4.99756017 20.2823649 0.96983848 24.30630901 -3.328125 28.55859375 C-4.0359613 29.26597183 -4.74379761 29.97334991 -5.4730835 30.7021637 C-6.96682885 32.19289854 -8.4629933 33.68121289 -9.96142578 35.16723633 C-12.23393273 37.42156129 -14.49840957 39.68371027 -16.76171875 41.94726562 C-18.22088494 43.40151263 -19.68050589 44.85530351 -21.140625 46.30859375 C-21.80862122 46.97547714 -22.47661743 47.64236053 -23.16485596 48.32945251 C-26.29230846 51.42607434 -29.45354127 54.42564192 -32.79711914 57.28833008 C-37.62831955 61.4655612 -42.09566181 65.99853261 -46.58241844 70.53781891 C-48.14002663 72.11307441 -49.70137186 73.68454019 -51.26374817 75.25506592 C-55.69932181 79.71488264 -60.12902305 84.18049938 -64.55444336 88.65039062 C-67.27615145 91.39892895 -70.00275165 94.14253562 -72.73238564 96.8832016 C-73.76567474 97.92267507 -74.79706566 98.96403917 -75.82646751 100.00736237 C-77.26409721 101.46428517 -78.70785443 102.91487126 -80.15307617 104.36425781 C-80.97055832 105.18919739 -81.78804047 106.01413696 -82.6302948 106.86407471 C-87.26625247 111.04267855 -90.69316331 112.57051759 -96.84765625 112.35546875 C-100.12506791 111.81419024 -101.78820981 110.41286203 -104 108 C-106.01376727 104.54886816 -106.6153835 101.69371821 -106.03372192 97.65924072 C-103.58670285 91.3643053 -97.70297801 86.73056023 -92.93359375 82.1171875 C-91.696978 80.89297706 -90.46206443 79.66704503 -89.22877502 78.43948364 C-85.98279505 75.21830527 -82.71311322 72.02225801 -79.43817139 68.83056641 C-76.12993579 65.59691473 -72.84692263 62.33786759 -69.56054688 59.08203125 C-50.08475307 39.82957632 -50.08475307 39.82957632 -42.78913879 33.57540894 C-39.54920138 30.72251325 -36.53908954 27.64148432 -33.5078125 24.5703125 C-32.83579803 23.89451141 -32.16378357 23.21871033 -31.47140503 22.52243042 C-29.35345801 20.39239759 -27.23882997 18.2591181 -25.125 16.125 C-22.31795911 13.29141798 -19.50765162 10.46113492 -16.6953125 7.6328125 C-16.05264435 6.98184601 -15.4099762 6.33087952 -14.74783325 5.66018677 C-14.15316254 5.06221283 -13.55849182 4.46423889 -12.94580078 3.84814453 C-12.42365997 3.32076691 -11.90151917 2.79338928 -11.36355591 2.25003052 C-8.09365198 -0.74763146 -4.19166494 -0.56875751 0 0 Z " fill="#F97531" transform="translate(229,616)"/>
<path d="M0 0 C1.13695816 -0.01004562 2.27391632 -0.02009125 3.44532776 -0.03044128 C4.69884033 -0.03627228 5.95235291 -0.04210327 7.24385071 -0.04811096 C9.21715111 -0.06278664 9.21715111 -0.06278664 11.23031616 -0.07775879 C15.60108995 -0.10916453 19.97188287 -0.12941563 24.34272766 -0.14796448 C25.08644379 -0.1512618 25.83015992 -0.15455912 26.5964129 -0.15795636 C33.61148472 -0.18874261 40.62656083 -0.21544909 47.64168072 -0.23237514 C56.6122717 -0.25427318 65.58226345 -0.29622049 74.55261487 -0.36581272 C80.86098927 -0.41308898 87.16920223 -0.43731364 93.47774822 -0.44457203 C97.24474936 -0.44952377 101.01107541 -0.46455665 104.77788353 -0.50431633 C108.32480483 -0.54126051 111.87066775 -0.54956811 115.41774559 -0.5363102 C117.3332863 -0.5363896 119.2487543 -0.56619162 121.16404724 -0.59700012 C127.65377521 -0.5423496 131.74395005 -0.12829201 136.46812153 4.53083706 C138.54418088 7.40950108 138.76810471 9.671947 138.64350891 13.16062927 C136.97014448 17.9018285 134.77285641 20.36521282 130.64350891 23.16062927 C127.91827393 23.66120052 127.91827393 23.66120052 124.91279602 23.66183472 C123.76882355 23.67166885 122.62485107 23.68150299 121.44621277 23.69163513 C120.20034393 23.68196716 118.9544751 23.67229919 117.67085266 23.66233826 C115.69207626 23.67044273 115.69207626 23.67044273 113.67332458 23.67871094 C110.06166207 23.69265608 106.45047645 23.68150283 102.83884048 23.66499972 C99.056197 23.65113341 95.27358076 23.6576111 91.49092102 23.66113281 C85.13903635 23.66383369 78.78734077 23.65036996 72.4355011 23.62718201 C65.09579237 23.60057293 57.75639978 23.59882557 50.41665936 23.61057037 C43.35105031 23.62135615 36.28555543 23.61515483 29.21995544 23.60101509 C26.21526892 23.5952622 23.21066613 23.59533246 20.20597839 23.60008049 C16.00919942 23.60574655 11.81289109 23.58651609 7.61616516 23.56468201 C5.74736191 23.57143448 5.74736191 23.57143448 3.84080505 23.57832336 C2.12484634 23.56346642 2.12484634 23.56346642 0.3742218 23.54830933 C-0.61758591 23.54587943 -1.60939362 23.54344954 -2.6312561 23.54094601 C-5.8653575 23.08961506 -7.72855561 22.07280504 -10.35649109 20.16062927 C-13.22459227 16.04968424 -13.83164019 12.88495881 -13.00883484 8.05906677 C-10.83632598 1.73667571 -5.99796778 0.04154614 0 0 Z " fill="#F9742F" transform="translate(13.356491088867188,412.83937072753906)"/>
<path d="M0 0 C1.14397247 -0.00845947 2.28794495 -0.01691895 3.46658325 -0.02563477 C4.71245209 -0.01956207 5.95832092 -0.01348938 7.24194336 -0.00723267 C9.22071976 -0.0151181 9.22071976 -0.0151181 11.23947144 -0.02316284 C14.85105052 -0.03682102 18.46237204 -0.03154412 22.07395554 -0.02202559 C25.85660233 -0.01442117 29.63922733 -0.02147677 33.421875 -0.02618408 C39.77372184 -0.03163936 46.12546398 -0.02445603 52.47729492 -0.01016235 C59.8169942 0.00616379 67.15644345 0.00087511 74.49613667 -0.01564157 C80.80201766 -0.02926295 87.10782346 -0.03117293 93.41371441 -0.02332556 C97.17812383 -0.01865261 100.94241579 -0.01801373 104.70681763 -0.02793503 C108.90357225 -0.03822354 113.099897 -0.02395668 117.29663086 -0.00723267 C118.54249969 -0.01330536 119.78836853 -0.01937805 121.07199097 -0.02563477 C122.21596344 -0.01717529 123.35993591 -0.00871582 124.53857422 0 C125.53038193 0.00113108 126.52218964 0.00226215 127.54405212 0.00342751 C130.79407927 0.45364973 132.64607922 1.43090274 135.26928711 3.38095093 C137.44136285 7.14588221 138.26928711 9.65196353 138.26928711 14.00595093 C137.07566745 18.03441729 135.4734415 19.72384729 132.26928711 22.38095093 C129.68519365 23.67299766 127.80760659 23.52152871 124.91279602 23.5415802 C123.77583786 23.55162582 122.6388797 23.56167145 121.46746826 23.57202148 C120.21395569 23.57785248 118.96044312 23.58368347 117.66894531 23.58969116 C115.69564491 23.60436684 115.69564491 23.60436684 113.68247986 23.61933899 C109.31170607 23.65074473 104.94091315 23.67099583 100.57006836 23.68954468 C99.82635223 23.692842 99.0826361 23.69613932 98.31638312 23.69953656 C91.3013113 23.73032281 84.28623519 23.75702929 77.2711153 23.77395535 C68.30052432 23.79585338 59.33053257 23.83780069 50.36018115 23.90739292 C44.05180675 23.95466918 37.74359379 23.97889384 31.43504781 23.98615223 C27.66804666 23.99110397 23.90172061 24.00613685 20.13491249 24.04589653 C16.58799119 24.08284071 13.04212827 24.09114831 9.49505043 24.0778904 C7.57950972 24.0779698 5.66404172 24.10777182 3.74874878 24.13858032 C-2.74396813 24.08390463 -6.83206647 23.66949197 -11.55532551 19.00463963 C-13.64786013 16.11399704 -13.85397179 13.89382959 -13.73071289 10.38095093 C-12.56704519 6.5020586 -11.75414991 4.14175662 -8.47169495 1.70163536 C-5.38615853 0.21493467 -3.4095548 0.00388832 0 0 Z " fill="#F9742F" transform="translate(725.730712890625,412.6190490722656)"/>
<path d="M0 0 C1.05589828 0.43301926 2.11179657 0.86603851 3.19969177 1.31217957 C5.42138522 2.22564064 7.64084552 3.14455012 9.8581543 4.06860352 C13.2348245 5.47577248 16.61760323 6.86727583 20.00195312 8.25585938 C22.1683415 9.14883583 24.33436956 10.04268699 26.5 10.9375 C28.00343712 11.55804008 28.00343712 11.55804008 29.5372467 12.19111633 C45.3644009 18.79381285 45.3644009 18.79381285 48.68359375 22.66796875 C49.89002941 26.28727573 50.00627934 28.8602788 49.68359375 32.66796875 C48.05539915 35.74990853 46.65350313 37.93217542 43.87109375 40.04296875 C37.09386464 41.97931992 31.7724672 39.85779812 25.62890625 37.1953125 C24.76909149 36.83458145 23.90927673 36.4738504 23.02340698 36.10218811 C20.28006146 34.94822248 17.54433123 33.77734075 14.80859375 32.60546875 C13.0096041 31.84454475 11.21012836 31.08476891 9.41015625 30.32617188 C6.74470019 29.202429 4.08043829 28.07630166 1.41998291 26.94076538 C-2.7975154 25.14141938 -7.02182642 23.3737806 -11.28613281 21.68798828 C-12.06393097 21.37809464 -12.84172913 21.06820099 -13.64309692 20.74891663 C-15.09040358 20.17509465 -16.54096874 19.6093927 -17.99533081 19.05369568 C-22.63984082 17.20465983 -26.03723936 15.22630252 -28.31640625 10.66796875 C-28.84639976 6.88230083 -29.14661878 3.21940839 -27.3046875 -0.22265625 C-19.92070061 -9.35839979 -8.99867982 -3.77633161 0 0 Z " fill="#F97531" transform="translate(719.31640625,528.33203125)"/>
<path d="M0 0 C2.79336314 2.0342326 4.45545455 4.9109091 6 8 C6.46488436 12.09098241 6.13817345 15.17305624 3.58984375 18.52685547 C-4.971946 26.4601846 -19.90859548 30.25172587 -30.54638672 34.5703125 C-33.76186019 35.87983012 -36.96865954 37.20924453 -40.17578125 38.5390625 C-42.23647607 39.37883976 -44.2976576 40.21742389 -46.359375 41.0546875 C-47.30850769 41.45146698 -48.25764038 41.84824646 -49.23553467 42.25704956 C-54.77639993 44.47568553 -59.02625967 45.5245667 -65 45 C-68.41753608 43.4495734 -70.53834165 40.78281199 -72.4375 37.5625 C-73.16657107 34.24117624 -72.999384 32.2646544 -72 29 C-68.08767181 23.16611715 -63.8608042 21.17999004 -57.4140625 18.6875 C-56.48008636 18.31069092 -55.54611023 17.93388184 -54.58383179 17.5456543 C-51.60371303 16.34763781 -48.6148356 15.17352617 -45.625 14 C-43.65432043 13.21250595 -41.68426145 12.42345703 -39.71484375 11.6328125 C-35.89949292 10.10293452 -32.07787621 8.59057561 -28.25097656 7.08984375 C-24.9820461 5.80267005 -21.74196372 4.47251274 -18.52246094 3.06640625 C-17.84903656 2.77789795 -17.17561218 2.48938965 -16.48178101 2.19213867 C-14.73791853 1.44050624 -13.0020766 0.67033686 -11.26708984 -0.1015625 C-7.02097531 -1.26922813 -4.30968744 -0.85205041 0 0 Z " fill="#F97531" transform="translate(763,281)"/>
<path d="M0 0 C3.79041795 0.79272361 5.5781777 2.68814127 8.22265625 5.46484375 C10.27463918 9.56880961 9.76596666 14.51269642 8.56121826 18.84143066 C7.61439546 21.36375371 6.579773 23.82635911 5.49609375 26.29296875 C5.11079498 27.2038324 4.72549622 28.11469604 4.32852173 29.05316162 C3.09986698 31.9470455 1.84903593 34.83072536 0.59765625 37.71484375 C-0.22018373 39.63480658 -1.03660259 41.55537541 -1.8515625 43.4765625 C-3.78539129 48.02054675 -5.74675629 52.55166962 -7.72961426 57.07446289 C-8.39212477 58.58597179 -9.0519063 60.09868236 -9.70788574 61.61303711 C-10.49976495 63.43776778 -11.30592982 65.2562808 -12.11328125 67.07421875 C-12.53915527 68.03811523 -12.9650293 69.00201172 -13.40380859 69.99511719 C-15.25375102 73.3214623 -17.35181809 75.75208092 -20.77734375 77.46484375 C-25.31656275 78.0088366 -28.73177065 78.08773836 -32.71484375 75.71484375 C-35.10986001 73.10209874 -36.69874686 71.03601786 -36.87942505 67.42420959 C-36.19084624 61.61398969 -34.56964804 56.73252925 -32.20703125 51.3984375 C-31.6680571 50.14269676 -31.6680571 50.14269676 -31.11819458 48.86158752 C-29.97414492 46.20348354 -28.8136096 43.55296454 -27.65234375 40.90234375 C-26.89603655 39.15216716 -26.14081973 37.40151895 -25.38671875 35.65039062 C-23.90751414 32.21971783 -22.41515506 28.79523008 -20.91308594 25.37451172 C-19.51572248 22.18517138 -18.15816767 18.98379267 -16.83691406 15.76220703 C-16.53157745 15.03002457 -16.22624084 14.2978421 -15.91165161 13.54347229 C-15.34780564 12.18870872 -14.79439833 10.82952817 -14.25411987 9.4651947 C-11.32539853 2.50473237 -7.37441649 -0.30778032 0 0 Z " fill="#F97531" transform="translate(568.77734375,92.53515625)"/>
<path d="M0 0 C4.09579037 3.35110121 4.59343961 4.86332226 5.1875 10.125 C5.41995956 13.82935559 3.83612976 15.95006869 1.46546936 18.70751953 C-1.92578951 21.75680196 -6.14659047 23.1683351 -10.34375 24.81640625 C-11.32686157 25.21778305 -12.30997314 25.61915985 -13.32287598 26.03269958 C-16.45906023 27.30859417 -19.60414352 28.56067107 -22.75 29.8125 C-24.83395268 30.65667579 -26.917293 31.50236495 -29 32.34960938 C-33.89654091 34.33663899 -38.80364694 36.29547546 -43.71679688 38.24102783 C-45.95243595 39.13148055 -48.18057087 40.03765837 -50.40625 40.95263672 C-52.1078125 41.6393042 -52.1078125 41.6393042 -53.84375 42.33984375 C-54.76865234 42.71874756 -55.69355469 43.09765137 -56.64648438 43.48803711 C-61.2492188 44.8351052 -64.2695502 44.77793451 -68.5 42.5 C-72.59579037 39.14889879 -73.09343961 37.63667774 -73.6875 32.375 C-73.92543257 28.58342939 -72.22410714 26.54196426 -69.80891418 23.7298584 C-67.17856521 21.2328999 -64.01987263 19.99587887 -60.6953125 18.69921875 C-59.96485718 18.39869598 -59.23440186 18.09817322 -58.48181152 17.7885437 C-56.11927954 16.82146536 -53.74784896 15.87894589 -51.375 14.9375 C-49.74478346 14.27783696 -48.11506515 13.61694138 -46.48583984 12.95483398 C-43.24980042 11.64349972 -40.00979147 10.34285183 -36.765625 9.05175781 C-32.82338649 7.4825394 -28.89473479 5.8828682 -24.96875 4.2734375 C-22.93812041 3.45159042 -20.90692282 2.63114449 -18.875 1.8125 C-17.9689502 1.4414917 -17.06290039 1.0704834 -16.12939453 0.68823242 C-10.25576404 -1.62797709 -5.87577003 -3.16387617 0 0 Z " fill="#F97531" transform="translate(168.25,524.75)"/>
<path d="M0 0 C1.51226669 0.61267731 1.51226669 0.61267731 3.05508423 1.23773193 C5.17984396 2.10073643 7.30273208 2.9683617 9.42382812 3.84033203 C12.64295178 5.16319975 15.8677011 6.4714683 19.09375 7.77734375 C21.16701513 8.62154056 23.23994308 9.46656599 25.3125 10.3125 C26.26385834 10.69915833 27.21521667 11.08581665 28.19540405 11.48419189 C47.55991022 19.46357044 47.55991022 19.46357044 50.2890625 24.921875 C51.07931789 29.52889578 50.95324531 32.80699671 48.5390625 36.859375 C45.94470423 39.23753674 43.87058158 40.83328083 40.28536987 41.03411865 C34.12819611 40.31752535 28.8621717 38.46957566 23.171875 36.0625 C22.23407196 35.67624451 21.29626892 35.28998901 20.33004761 34.89202881 C17.35346394 33.66272708 14.38389028 32.41739575 11.4140625 31.171875 C9.42880569 30.3505459 7.44313172 29.53022438 5.45703125 28.7109375 C-23.2968953 16.81533548 -23.2968953 16.81533548 -26.7109375 11.921875 C-27.96133386 8.0361496 -28.15435034 4.91955388 -26.4609375 1.109375 C-18.80079266 -8.46580605 -9.89839279 -4.08982071 0 0 Z " fill="#F97531" transform="translate(122.7109375,285.078125)"/>
<path d="M0 0 C3.65691682 1.66223492 6.00179234 3.5031366 8 7 C9.12418573 11.53474356 8.95489215 14.15048846 7.15625 18.4375 C6.68960938 19.571875 6.22296875 20.70625 5.7421875 21.875 C5.46922852 22.51953125 5.19626953 23.1640625 4.91503906 23.828125 C3.88476103 26.27352346 2.88289288 28.72959987 1.8828125 31.1875 C-0.1262945 36.11306637 -2.16690113 41.02484323 -4.22021484 45.93212891 C-5.07849685 47.98958248 -5.93163199 50.04919016 -6.77978516 52.11083984 C-8.01844148 55.12063671 -9.2730286 58.1233385 -10.53125 61.125 C-10.90536011 62.04273193 -11.27947021 62.96046387 -11.66491699 63.90600586 C-14.04250228 69.51608589 -16.31877035 74.15938517 -22 77 C-27.25279338 77.34444547 -30.82634624 77.57741751 -35 74 C-37.22407266 70.73802676 -38.05289802 68.8603209 -37.80932617 64.89892578 C-36.81140057 60.09142298 -35.10286013 55.86852505 -33.17578125 51.3671875 C-32.79189743 50.45349396 -32.40801361 49.53980042 -32.01249695 48.59841919 C-31.20006956 46.66881289 -30.38372812 44.74085043 -29.5637207 42.81445312 C-28.32667738 39.90830646 -27.10071213 36.9976995 -25.87695312 34.0859375 C-10.84743993 -1.57780944 -10.84743993 -1.57780944 0 0 Z " fill="#F97531" transform="translate(323,679)"/>
<path d="M0 0 C5.9788908 3.62558458 8.67695888 8.48541885 11.19140625 14.80859375 C11.72120338 16.07425926 11.72120338 16.07425926 12.26170349 17.36549377 C13.38000063 20.04910692 14.47146714 22.74270448 15.5625 25.4375 C16.2970964 27.21100474 17.03341164 28.98379855 17.77148438 30.75585938 C19.54636173 35.03059959 21.29359618 39.31589112 23.02871704 43.60690308 C23.9562731 45.89226341 24.89564104 48.17238543 25.83862305 50.45141602 C26.38746482 51.79042171 26.93606497 53.12952648 27.484375 54.46875 C27.95713867 55.61666016 28.42990234 56.76457031 28.91699219 57.94726562 C30.50737551 62.43016758 30.82113155 65.29715566 30 70 C28.23214154 73.05004151 26.20705314 75.39647343 23 77 C17.41775049 77.36604915 14.67652706 77.30438048 10 74 C8.46508789 71.71264648 8.46508789 71.71264648 7.16015625 68.93359375 C6.65629395 67.86222168 6.15243164 66.79084961 5.63330078 65.68701172 C2.78271306 59.31404726 0.07521384 52.88165851 -2.58666992 46.42797852 C-3.56028663 44.06786536 -4.54032544 41.71050191 -5.52148438 39.35351562 C-8.38350898 32.46285625 -11.20987468 25.55760204 -13.94921875 18.6171875 C-14.34326904 17.61929199 -14.73731934 16.62139648 -15.14331055 15.59326172 C-16.37207885 11.87369007 -16.48704896 9.64326996 -15 6 C-10.97506054 0.83331554 -6.49791733 -1.68139195 0 0 Z " fill="#F97531" transform="translate(301,93)"/>
<path d="M0 0 C11.86492196 4.94371748 16.7478922 27.09712601 21.3125 38.125 C22.54488044 41.09136977 23.77844635 44.0572434 25.01249695 47.0229187 C25.77497932 48.85648893 26.53626354 50.69055796 27.29621887 52.525177 C27.80761665 53.75819046 27.80761665 53.75819046 28.3293457 55.01611328 C28.62879593 55.73936798 28.92824615 56.46262268 29.23677063 57.20779419 C29.78296574 58.49036283 30.37657215 59.7531443 31 61 C31.53118173 64.79415519 31.85089348 68.46331178 29.953125 71.890625 C27.62271153 74.71453779 25.71892696 76.79399893 22.01171875 77.23828125 C20.86123047 77.27501953 20.86123047 77.27501953 19.6875 77.3125 C18.54861328 77.36857422 18.54861328 77.36857422 17.38671875 77.42578125 C13.92388997 76.8080262 12.46976634 75.50127851 10 73 C8.52844775 70.33094977 7.30235721 67.79449197 6.125 65 C5.76277344 64.1656543 5.40054688 63.33130859 5.02734375 62.47167969 C4.18038702 60.50709641 3.3415657 58.53899537 2.50878906 56.56835938 C1.39350421 53.93065656 0.27062473 51.29697379 -0.86035156 48.66601562 C-2.57519745 44.67509774 -4.2769109 40.67878885 -5.97027588 36.67871094 C-6.65312612 35.06813795 -7.33876706 33.45874513 -8.02728271 31.85058594 C-9.00758198 29.55559874 -9.97411745 27.25525609 -10.9375 24.953125 C-11.23189972 24.27034485 -11.52629944 23.5875647 -11.82962036 22.88409424 C-13.75751812 18.22421539 -14.7180436 14.05260545 -15 9 C-11.80479594 2.48669941 -7.40578684 -1.05796955 0 0 Z " fill="#F97531" transform="translate(547,679)"/>
</svg>
